<svg xmlns="http://www.w3.org/2000/svg" width="23.874313" height="24.024" viewBox="0 0 23.874313 24.024001">
  <path d="m 14.060779,17.743376 q 0.78,0.52 1.066,1.092 0.286,0.572 0.286,1.118 0.026,0.52 -0.078,0.988 -0.078,0.338 -0.338,0.884 -0.26,0.52 -0.65,1.066 -0.39,0.52 -0.884,0.858 -0.468,0.338 -0.962,0.26 -0.442,-0.078 -0.598,-0.26 -0.13,-0.156 -0.234,-0.312 -0.078,-0.156 -0.39,-0.104 -0.442,0.078 -0.91,-0.156 -0.4680002,-0.208 -0.6760002,-0.338 -0.832,-0.572 -1.092,-1.352 -0.26,-0.806 -0.052,-1.664 0.234,-0.884 0.832,-1.664 0.442,-0.598 1.2480002,-0.858 0.832,-0.286 1.742,-0.182 0.936,0.078 1.69,0.624 z m -0.936,2.678 q 0.078,-0.208 0.026,-0.598 -0.026,-0.416 -0.338,-0.702 -0.286,-0.286 -1.04,-0.078 -0.728,0.182 -0.962,0.806 -0.078,0.208 -0.156,0.598 -0.078,0.364 0.026,0.728 0.104,0.364 0.546,0.572 0.442,0.182 0.858,-0.078 0.416,-0.26 0.702,-0.65 0.286,-0.416 0.338,-0.598 z" fill="white"/>
</svg>