<svg xmlns="http://www.w3.org/2000/svg" width="23.874313" height="24.024" viewBox="0 0 23.874313 24.024001">
  <path d="m 5.3981567,5.3560001 q -0.858,0.052 -1.534,-0.364 -0.676,-0.416 -1.04,-1.04 -0.364,-0.65 -0.338,-1.17 0.052,-0.546 0.312,-1.118 0.286,-0.598 0.832,-0.98799999 0.572,-0.416 1.456,-0.416 1.326,0 2.028,0.75399999 0.728,0.754 0.754,1.586 0.026,0.546 -0.234,1.17 -0.26,0.624 -0.806,1.092 -0.546,0.442 -1.43,0.494 z M 17.410157,14.976 q -0.208,-0.442 -0.754,-0.442 -0.52,-0.026 -1.3,0.676 -0.468,0.416 -0.962,0.962 -0.468,0.546 -0.832,1.04 -0.234,0.286 -0.26,0.78 -0.026,0.494 0.442,0.676 0.364,0.13 0.754,0.26 0.39,0.13 0.65,0.182 0.754,0.182 1.742,0.338 1.014,0.13 2.106,0.234 1.092,0.104 2.054,0.156 0.988,0.052 1.69,0.078 0.702,0 0.91,-0.026 0,0.312 -0.078,0.91 -0.078,0.598 -0.416,1.274 -0.338,0.702 -1.144,1.222 -0.26,0.156 -1.196,0.312 -0.91,0.156 -2.288,0.156 -1.378,0 -3.016,-0.286 -1.742,-0.312 -3.64,-1.066 -1.8980003,-0.754 -3.6400003,-2.184 -0.312,-0.26 -0.78,-0.156 -0.442,0.104 -0.962,0.39 -0.52,0.26 -1.092,0.494 -0.338,0.13 -1.066,0.26 -0.702,0.13 -1.43,0.026 -0.468,-0.052 -1.04,-0.416 -0.572,-0.364 -1.04000003,-1.066 -0.468,-0.728 -0.676,-1.872 0.338,-0.078 0.96200003,-0.234 0.624,-0.156 1.222,-0.364 0.598,-0.234 0.832,-0.416 0.988,-0.832 1.144,-1.95 0.156,-1.118 -0.156,-2.054 -0.182,-0.572 -0.728,-0.988 -0.52,-0.416 -1.092,-0.858 -0.572,-0.468 -0.962,-1.1179999 -0.39000003,-0.676 -0.312,-1.742 h 7.514 q 0,0 0,0.572 0,0.572 0,1.4819999 0,0.884 0,1.846 0.026,0.936 0.052,1.716 0.052,0.754 0.104,1.092 0.13,0.676 0.598,0.754 0.52,0.13 1.0660003,-0.442 0.572,-0.572 1.248,-1.378 0.676,-0.832 1.248,-1.56 0.572,-0.728 0.754,-1.04 0.234,-0.364 0.338,-0.988 0.104,-0.6239999 0.104,-1.2219999 0,-0.624 -0.13,-0.91 l -3.146,-6.37 q 0,0 0.338,-0.156 0.364,-0.156 0.91,-0.338 0.546,-0.208 1.118,-0.33799999 0.598,-0.13 1.092,-0.078 0.494,0.052 0.728,0.41599999 0.182,0.26 0.728,1.248 0.546,0.962 1.352,2.418 0.806,1.456 1.69,3.12 0.91,1.664 1.768,3.3019999 0.884,1.612 1.612,2.964 0.728,1.326 1.144,2.132 0.442,0.806 0.442,0.806 0,0 -0.39,0.364 -0.39,0.364 -1.04,0.754 -0.624,0.364 -1.326,0.468 -0.52,0.078 -1.04,-0.104 -0.52,-0.208 -0.962,-0.858 -0.182,-0.286 -0.624,-1.014 -0.416,-0.754 -0.936,-1.846 z" fill="white"/>
</svg>