<svg xmlns="http://www.w3.org/2000/svg" width="23.874313" height="24.024" viewBox="0 0 23.874313 24.024001">
  <path d="m 23.2206,2.132 q 0.364,0.338 0.52,0.702 0.156,0.364 0.13,0.728 0,0.65 -0.442,1.144 -0.416,0.494 -0.858,0.546 -0.39,0.026 -1.378,0.078 -0.962,0.026 -2.444,0.052 -0.156,0 -0.416,0.13 -0.234,0.13 -0.234,0.364 0,0.26 0.182,0.468 0.182,0.208 0.52,0.208 h 3.25 q 0.702,0.598 0.702,1.3 0.026,0.702 -0.442,1.248 -0.468,0.5199998 -0.91,0.5719998 -0.442,0.052 -1.482,0.104 -1.014,0.026 -2.34,0.052 -1.3,0 -2.626,0 -1.326,-0.026 -2.392,-0.052 -1.04,-0.026 -1.534,-0.104 -0.676,-0.104 -1.1180002,-0.9619998 -0.416,-0.884 -0.312,-2.158 H 13.9646 q 0.182,0 0.39,-0.156 0.234,-0.156 0.234,-0.468 0,-0.286 -0.208,-0.39 -0.182,-0.13 -0.39,-0.156 -0.104,0 -0.65,0 -0.546,-0.026 -1.248,-0.026 -0.676,-0.026 -1.3,-0.052 -0.598,-0.026 -0.8580002,-0.052 -0.156,-0.026 -0.338,0.078 -0.182,0.078 -0.364,0.52 -0.182,0.468 -0.494,0.832 -0.312,0.338 -0.754,0.442 -0.468,0.13 -1.3259998,0.182 -0.858,0.052 -1.846,0.052 -0.962,0 -1.794,-0.052 Q 2.2126,7.228 1.8226,7.124 1.3026,6.968 0.8866,6.448 0.4706,5.902 0.2106,5.148 -0.0234,4.368 0.0026,3.562 h 2.392 q 0.676,0 0.858,-0.26 0.182,-0.26 0.052,-0.442 -0.208,-0.286 -0.442,-0.572 -0.208,-0.312 -0.208,-0.65 0,-0.806 0.624,-1.222 Q 3.9286,0 4.8906,0 q 0.962,0 1.43,0.442 0.468,0.442 0.468,1.196 0,0.26 -0.104,0.624 -0.104,0.338 -0.364,0.494 -0.416,0.208 -0.26,0.494 0.156,0.286 0.598,0.364 0.182,0.026 0.494,0 0.3379998,-0.026 0.6239998,-0.052 0.286,-0.026 0.494,-0.26 0.234,-0.234 0.208,-0.416 0,-0.182 0,-0.364 0,-0.208 0.026,-0.39 H 13.6526 q 0.338,0 0.65,-0.208 0.338,-0.208 0.338,-0.702 V 0.052 Q 15.2386,0 16.0446,0 q 0.832,0 1.404,0.39 0.13,0.104 0.338,0.338 0.234,0.208 0.338,0.494 0.13,0.416 0.312,0.676 0.208,0.234 0.52,0.234 z M 8.1665998,8.034 q 0.208,0.312 0.286,0.598 0.078,0.286 0.104,0.546 0.052,0.5459998 -0.234,0.962 -0.26,0.416 -0.702,0.546 Q 7.3086,10.79 6.6066,10.868 q -0.676,0.052 -1.534,0.078 -0.832,0 -1.664,-0.078 -0.806,-0.078 -1.404,-0.26 -0.39,-0.13 -0.598,-0.52 Q 1.1986,9.6719998 1.1206,9.204 1.0426,8.71 1.0166,8.372 q 0,-0.338 0,-0.338 z m 0.468,5.798 V 10.66 H 23.1426 v 6.344 q -0.494,0.104 -1.118,-0.052 -0.624,-0.182 -0.832,-0.598 -0.208,-0.39 -0.416,-0.91 -0.208,-0.52 -0.442,-0.936 -0.104,-0.208 -0.312,-0.026 -0.182,0.156 -0.208,0.442 0,0.182 0,0.702 0,0.494 0,1.066 0,0.546 0,0.988 0,0.416 0,0.494 0,0.884 0.26,1.352 0.26,0.468 0.598,0.624 0.39,0.182 0.936,0 0.546,-0.182 0.936,-0.416 0.416,-0.234 0.416,-0.234 0,0 0.078,0.39 0.078,0.364 0.104,0.936 0.026,0.572 -0.156,1.17 -0.156,0.598 -0.676,1.066 -0.364,0.338 -0.962,0.52 -0.572,0.182 -1.196,0.182 -0.598,0.026 -1.066,-0.104 -0.91,-0.26 -1.612,-1.092 -0.702,-0.832 -0.832,-2.262 -0.026,-0.286 -0.052,-1.092 -0.026,-0.832 -0.052,-1.82 0,-0.988 0,-1.794 0,-0.832 0,-1.144 0,-0.598 -0.494,-0.754 -0.468,-0.156 -0.78,-0.13 -0.286,0 -0.572,-0.026 -0.26,-0.026 -0.52,0.026 -0.208,0.026 -0.312,0.182 -0.104,0.156 0.234,0.286 0.442,0.208 0.754,0.52 0.312,0.286 0.338,0.702 0.052,0.624 0.052,1.456 0.026,0.832 0,1.716 0,0.858 -0.052,1.534 -0.026,0.676 -0.052,0.988 -0.078,0.832 -0.442,1.378 -0.364,0.546 -0.806,0.91 -0.702,0.494 -1.352,0.624 -0.65,0.156 -0.65,0.156 V 15.21 q 0,-0.338 -0.26,-0.468 -0.234,-0.13 -0.364,0.156 -0.182,0.416 -0.364,0.832 -0.182,0.39 -0.338,0.65 -0.234,0.338 -0.52,0.572 -0.2860002,0.208 -0.6500002,0.182 -0.104,-0.026 -0.338,0.208 -0.208,0.208 -0.208,0.624 v 3.146 q 0,1.066 -0.52,1.586 -0.52,0.52 -1.2739998,0.702 -0.39,0.078 -1.04,0.104 -0.65,0.052 -1.378,0.026 -0.728,0 -1.352,-0.052 -0.624,-0.052 -0.988,-0.13 -0.468,-0.13 -0.806,-0.546 -0.338,-0.39 -0.52,-0.91 -0.156,-0.52 -0.156,-0.936 v -5.772 h 6.578 q 0.4159998,0 0.8319998,-0.312 0.416,-0.338 0.416,-1.04 z M 1.0946,11.57 h 7.0719998 q 0.442,0.962 0.208,1.716 -0.234,0.754 -1.0659998,0.962 -0.546,0.104 -1.508,0.156 -0.936,0.052 -1.872,0.026 -0.91,-0.052 -1.43,-0.208 -0.39,-0.13 -0.676,-0.546 -0.26,-0.416 -0.416,-0.884 -0.156,-0.494 -0.234,-0.858 -0.078,-0.364 -0.078,-0.364 z m 4.472,7.826 q 0.052,-0.494 -0.156,-0.988 -0.208,-0.52 -0.572,-0.52 -0.364,0 -0.546,0.494 -0.182,0.468 -0.182,0.962 0.026,0.156 0.052,0.494 0.052,0.338 0.182,0.624 0.156,0.286 0.468,0.286 0.494,0 0.598,-0.468 0.13,-0.468 0.156,-0.884 z" fill="white"/>
</svg>