<svg xmlns="http://www.w3.org/2000/svg" width="23.874313" height="24.024" viewBox="0 0 23.874313 24.024001">
  <path d="m 22.519157,5.505501 q 0.104,0.338 0.156,1.118 0.052,0.78 0.078,1.794 0.026,0.988 0.026,2.002 0,1.014 -0.026,1.872 0,0.858 -0.026,1.326 -0.078,1.456 -0.962,2.548 -0.884,1.066 -2.184,1.404 -0.65,0.182 -1.56,0.312 -0.884,0.104 -2.002,0.182 -0.234,0.026 -0.598,0.208 -0.338,0.156 -0.624,0.494 -0.26,0.312 -0.26,0.858 0,0.156 0,0.728 0,0.546 -0.026,1.222 0,0.65 -0.026,1.144 0,0.494 -0.026,0.572 -0.078,0.26 -0.52,0.416 -0.442,0.156 -1.04,0.208 -0.572,0.078 -1.092,0.078 -0.494,0.026 -0.676,0 -0.598,-0.052 -1.1440003,-0.234 -0.52,-0.156 -0.546,-0.52 0,-0.052 0,-0.546 0,-0.468 0,-1.118 0.026,-0.65 0.026,-1.222 0,-0.598 0,-0.858 0,-0.546 -0.338,-0.832 -0.338,-0.312 -0.78,-0.442 -0.416,-0.156 -0.702,-0.182 -1.196,-0.104 -2.002,-0.26 -0.78,-0.182 -1.482,-0.416 -0.988,-0.338 -1.846,-1.274 -0.832,-0.936 -1.04,-2.47 -0.078,-0.52 -0.13,-1.352 -0.026,-0.858 -0.052,-1.846 0,-1.014 0.026,-1.976 0.026,-0.988 0.052,-1.768 0.052,-0.78 0.13,-1.17 h 6.162 q 0.858,0 1.378,-0.312 0.546,-0.312 0.572,-1.17 0,-0.182 0,-0.806 0.026,-0.624 0.026,-1.352 0.026,-0.728 0.026,-1.24800002 0,-0.546 0,-0.546 0.442,-0.052 1.1960003,-0.052 0.754,0 1.534,0.13 0.806,0.104 1.326,0.442 0.416,0.26 0.676,0.70200002 0.26,0.416 0.26,1.066 0,0.13 0,0.494 0.026,0.364 0.026,0.754 0.026,0.39 0.026,0.624 0.052,0.494 0.572,0.884 0.546,0.39 1.274,0.39 z m -15.9900003,7.67 q 0.234,0.104 0.702,0.182 0.494,0.052 0.91,0 0.286,-0.026 0.65,-0.156 0.364,-0.156 0.442,-0.494 0.078,-0.26 0.104,-0.702 0.026,-0.442 0.026,-0.884 0,-0.442 -0.078,-0.676 -0.078,-0.39 -0.468,-0.572 -0.364,-0.208 -0.884,-0.234 -0.338,-0.026 -0.78,0.052 -0.416,0.052 -0.728,0.208 -0.442,0.234 -0.572,0.676 -0.13,0.416 -0.13,0.988 0,0.65 0.156,1.04 0.182,0.364 0.65,0.572 z m 9.2560003,0.182 q 0.39,0.052 0.858,0 0.494,-0.078 0.728,-0.182 0.468,-0.208 0.65,-0.572 0.182,-0.39 0.182,-1.04 0,-0.572 -0.156,-0.988 -0.13,-0.442 -0.572,-0.676 -0.286,-0.156 -0.728,-0.208 -0.442,-0.078 -0.78,-0.052 -0.494,0.026 -0.884,0.234 -0.39,0.182 -0.468,0.572 -0.052,0.234 -0.078,0.676 0,0.442 0.026,0.884 0.052,0.442 0.104,0.702 0.078,0.338 0.442,0.494 0.364,0.13 0.676,0.156 z" fill="white"/>
</svg>