<svg xmlns="http://www.w3.org/2000/svg" width="23.874313" height="24.024" viewBox="0 0 23.874313 24.024001">
  <path d="m 11.013073,3.5078328 q 0.832,0.156 1.482,1.014 0.676,0.832 0.78,1.976 0.078,0.754 0.104,1.17 0.026,0.416 0.104,0.65 0.078,0.234 0.286,0.468 0.182,0.182 0.494,0.182 0.338,-0.026 0.52,-0.104 0.182,-0.052 0.338,-0.234 0.182,-0.208 0.13,-0.52 0,-0.234 -0.078,-0.598 -0.078,-0.39 -0.182,-0.754 -0.078,-0.364 -0.156,-0.546 0.65,-0.078 1.404,0.078 0.754,0.13 1.378,0.416 0.65,0.26 0.936,0.65 0.312,0.416 0.364,0.91 0.078,0.494 0.156,0.936 0.104,0.442 0.416,0.702 0.338,0.2600002 0.728,0.6500002 0.416,0.39 0.702,1.014 0.312,0.624 0.312,1.612 0.026,0.494 -0.26,0.832 -0.286,0.312 -0.624,0.494 -0.338,0.156 -0.52,0.208 -0.26,0.104 -0.364,0.208 -0.104,0.104 -0.156,0.208 -0.13,0.182 -0.26,0.676 -0.13,0.468 -0.234,1.014 -0.078,0.52 -0.182,0.91 -0.156,0.572 -0.52,1.3 -0.364,0.728 -1.092,1.404 -0.286,0.286 -0.858,0.39 -0.572,0.078 -1.17,-0.026 -0.572,-0.13 -0.962,-0.468 0.338,-0.39 0.546,-1.17 0.234,-0.806 0.338,-1.69 0.104,-0.91 0.13,-1.586 0.052,-0.702 0,-0.884 -0.078,-0.416 -0.52,-0.468 -0.338,-0.052 -0.416,0.338 -0.078,0.26 -0.312,0.858 -0.234,0.598 -0.494,1.196 -0.26,0.598 -0.39,0.962 -0.52,1.378 -1.898,2.392 -1.3779996,0.988 -3.0159996,1.378 -0.546,0.13 -1.17,0.104 -0.624,0 -1.508,-0.208 -0.572,-0.156 -1.196,-0.624 -0.624,-0.494 -1.04,-1.378 -0.39,-0.884 -0.312,-2.236 0.026,-0.468 0.182,-1.222 0.182,-0.78 0.546,-1.43 0.494,-0.884 1.196,-1.56 0.702,-0.702 1.43,-1.222 0.754,-0.52 1.352,-0.884 0.598,-0.364 0.858,-0.546 1.144,-0.8320002 1.404,-1.4300002 0.26,-0.624 0.208,-0.962 -0.052,-0.364 -0.39,-0.676 -0.338,-0.312 -1.17,-0.416 -0.234,-0.052 -0.858,-0.156 -0.598,-0.13 -1.326,-0.26 -0.702,-0.13 -1.222,-0.182 -1.118,-0.13 -1.664,-1.196 -0.52,-1.066 -0.676,-2.912 0.156,0.052 0.962,0.182 0.806,0.104 1.924,0.286 1.118,0.156 2.262,0.312 1.144,0.156 2.028,0.286 0.8839996,0.13 1.1959996,0.182 z M 7.0350734,17.885833 q 0.286,0.26 0.884,-0.104 0.624,-0.39 1.17,-0.988 0.546,-0.598 0.806,-1.222 0.2859996,-0.624 -0.078,-0.806 -0.338,-0.182 -0.858,0.078 -0.494,0.26 -0.936,0.728 -0.598,0.572 -0.962,1.3 -0.338,0.702 -0.026,1.014 z" fill="white"/>
</svg>