<svg xmlns="http://www.w3.org/2000/svg" width="137.735" height="57.368" viewBox="0 0 137.735 57.368">
  <path d="M-1666.264-324.328a3.035,3.035,0,0,0-.2-1.165c-.136-.328-.284-.491-.444-.491q-.216,0-.265.311a3.54,3.54,0,0,0-.048.5v1.525q0,.732-.024,1.092a3.043,3.043,0,0,1-.516,1.6,2.07,2.07,0,0,1-1.164.877c-.256.079-.52.148-.792.2a8.69,8.69,0,0,1-1.057.132,1.656,1.656,0,0,0-.324.036.229.229,0,0,0-.2.2c-.016.223.159.36.527.408a5.459,5.459,0,0,0,.672.024h1.14q.612,0,1.056-.013l.444-.012a1.436,1.436,0,0,1,.432,1.008,1.454,1.454,0,0,1-.264.84,1.114,1.114,0,0,1-.648.481,2.626,2.626,0,0,1-.456.036l-.876.023-.9.024c-.272.008-.456.012-.552.012a.429.429,0,0,0-.348.108.324.324,0,0,0-.084.18.177.177,0,0,0,.059.168.425.425,0,0,0,.324.1h3.744c.08.079.1.256.049.527a1.973,1.973,0,0,1-.373.816,1.486,1.486,0,0,1-.876.552q-.192.049-.876.157t-1.644.239q-.96.132-2.028.252t-2.052.216q-.984.1-1.7.121a3.9,3.9,0,0,1-.984-.049,1.727,1.727,0,0,1-.768-.5,3.359,3.359,0,0,1-.5-.648,1.831,1.831,0,0,1-.18-.779c-.008-.3,0-.6.012-.9h3.888a2.442,2.442,0,0,0,.384-.036.231.231,0,0,0,.216-.252.238.238,0,0,0-.216-.24,3.075,3.075,0,0,0-.384-.024q-.12,0-.612-.012l-.984-.024a5.915,5.915,0,0,1-.636-.036,1.888,1.888,0,0,1-.648-.239,1.8,1.8,0,0,1-.6-.6,2.238,2.238,0,0,1-.216-.636,3.1,3.1,0,0,1-.023-.876h3.744c.319,0,.5-.112.527-.336a.189.189,0,0,0-.156-.252,2.979,2.979,0,0,0-.348-.085,8.994,8.994,0,0,1-1.236-.156,5.243,5.243,0,0,1-.924-.276,2.454,2.454,0,0,1-.984-.8,3.11,3.11,0,0,1-.576-1.548c-.032-.272-.056-.644-.072-1.116s-.024-.972-.024-1.5.013-1.016.036-1.463.052-.777.085-.985h3.456a2.106,2.106,0,0,0,.311-.036c.144-.023.216-.124.216-.3,0-.113-.064-.18-.192-.2a1.912,1.912,0,0,0-.336-.036q-1.369-.024-2.245-.084a5.245,5.245,0,0,1-1.139-.156,1.271,1.271,0,0,1-.708-.841,6.019,6.019,0,0,1-.228-1.344l4.392-.048.252-.036c.167-.024.252-.108.252-.252s-.085-.229-.252-.252a3.031,3.031,0,0,0-.42-.036,9.084,9.084,0,0,1-1.44-.013,2.73,2.73,0,0,1-.72-.156,2.168,2.168,0,0,1-1-.78,2.953,2.953,0,0,1-.419-.876c-.065-.257-.1-.384-.1-.384l10.656-1.656.132.312c.087.208.18.464.275.768a3.613,3.613,0,0,1,.168.888,1.537,1.537,0,0,1-.084.66.691.691,0,0,1-.445.4c-.1.016-.311.056-.648.121s-.676.123-1.02.18-.588.1-.732.131a.7.7,0,0,0-.445.2.452.452,0,0,0-.131.276.381.381,0,0,0,.072.264q.1.167.48.192h.624q.456,0,1.044-.012t1.14-.012q.552,0,.912-.013l.36-.012.072.24c.032.064.1.079.193.048a.205.205,0,0,0,.144-.216v-4.3l.336-.013a7.727,7.727,0,0,1,.828.024,4.134,4.134,0,0,1,.948.18,2.09,2.09,0,0,1,.769.42.956.956,0,0,1,.311.756v2.831a.865.865,0,0,0,.348.708,1.488,1.488,0,0,0,.756.324c.144.016.4.032.756.048s.748.024,1.164.024h1.512s0,.292.013.876.015,1.36.023,2.328.008,2.032,0,3.192-.028,2.319-.059,3.479-.088,2.212-.168,3.156a10,10,0,0,1-.264,1.548,3.005,3.005,0,0,1-.841,1.5,2.319,2.319,0,0,1-.8.48,2.9,2.9,0,0,1-1.092.144,1,1,0,0,1-.708-.432,5.63,5.63,0,0,0-.588-.648.435.435,0,0,0-.409-.1,1.89,1.89,0,0,0-.5.168,1.368,1.368,0,0,0-.336.216,4.3,4.3,0,0,1-.912.6,4.758,4.758,0,0,1-.769.3l-.311.084Zm3.816-1.512a.547.547,0,0,0-.528.408,3.287,3.287,0,0,0-.1.84v2.88q0,1.1-.012,2.209t-.036,1.944q-.024.84-.048,1.1-.1,1.08.264,1.08.263,0,.6-.563a4.461,4.461,0,0,0,.5-1.428,9.3,9.3,0,0,0,.108-1.164q.035-.78.048-1.716t0-1.86q-.012-.923-.024-1.6t-.012-.888a2.23,2.23,0,0,0-.168-.923.513.513,0,0,0-.5-.33A.857.857,0,0,0-1662.448-325.84Zm-8.856,3q-.24.1-.24.288a.361.361,0,0,0,.2.36,1.029,1.029,0,0,0,.444.1,1.873,1.873,0,0,0,.516-.072.369.369,0,0,0,.276-.36.336.336,0,0,0-.252-.348,1.493,1.493,0,0,0-.468-.084A1.728,1.728,0,0,0-1671.3-322.84Zm-4.3,0c-.16.064-.239.16-.239.288a.361.361,0,0,0,.2.36,1.033,1.033,0,0,0,.445.1,1.883,1.883,0,0,0,.516-.072.334.334,0,0,0,.252-.36.335.335,0,0,0-.24-.348,1.445,1.445,0,0,0-.48-.084A1.732,1.732,0,0,0-1675.6-322.84Zm4.776-2.712a1.443,1.443,0,0,0-.48.084c-.16.056-.24.148-.24.276a.342.342,0,0,0,.2.336,1.029,1.029,0,0,0,.444.1,2.232,2.232,0,0,0,.516-.06.348.348,0,0,0,.276-.348.318.318,0,0,0-.252-.336,1.313,1.313,0,0,0-.357-.054A.99.99,0,0,0-1670.824-325.552Zm-4.32,0a1.387,1.387,0,0,0-.456.084c-.16.056-.239.148-.239.276a.341.341,0,0,0,.2.336,1.033,1.033,0,0,0,.445.1,2.244,2.244,0,0,0,.516-.06.315.315,0,0,0,.252-.348.316.316,0,0,0-.24-.336,1.248,1.248,0,0,0-.359-.054A1.2,1.2,0,0,0-1675.144-325.552Zm4.968-2.713q-.481.024-.624.049a.606.606,0,0,0-.409.1.264.264,0,0,0-.1.168.207.207,0,0,0,.059.192.617.617,0,0,0,.348.144,4.332,4.332,0,0,0,.492.036c.231.008.48.008.743,0s.476-.02.636-.036a2.383,2.383,0,0,0,.468-.12c.184-.064.252-.176.2-.336a.288.288,0,0,0-.312-.265h-.456Q-1669.7-328.288-1670.176-328.264Zm-26.916,15.385q-.4-.024-.972-.049a1.059,1.059,0,0,1-.864-.383.706.706,0,0,1-.167-.481v-1.391q0-.817-.024-1.62a10.493,10.493,0,0,0-.12-1.381q-.1-.575-.265-.671a.941.941,0,0,0-.612-.168,1.022,1.022,0,0,0-.444.228,1.89,1.89,0,0,1-.6.312,2.939,2.939,0,0,1-1.1.084,1.673,1.673,0,0,1-.936-.3,1.341,1.341,0,0,1-.409-.48l-.1-.229.372-.347q.373-.348.912-.913t1.068-1.211a10.922,10.922,0,0,0,.876-1.224,1.589,1.589,0,0,0,.3-.96,1.418,1.418,0,0,0-.4-.936,2.193,2.193,0,0,0-.733-.432,7.048,7.048,0,0,1-.792-.336,3.4,3.4,0,0,1-.815-.792,2.369,2.369,0,0,1-.337-1.68h2.52a1.821,1.821,0,0,0,1.116-.24.775.775,0,0,0,.373-.648,1.124,1.124,0,0,0-.168-.635l-.168-.252a.771.771,0,0,0-.527-.36l-.864-.216a2.9,2.9,0,0,1-.936-.432,2.192,2.192,0,0,1-.744-1.032l.492-.2,1.272-.527q.78-.324,1.644-.7t1.632-.707q.768-.336,1.26-.54l.492-.2a6.778,6.778,0,0,1,1,.636q.564.42,1.093.851a8.207,8.207,0,0,1,.815.744,5.715,5.715,0,0,1-1.236.888q-.54.263-.948.455a1.742,1.742,0,0,0-.72.7,1.675,1.675,0,0,0-.252.792,2.467,2.467,0,0,0,.072.851,1.787,1.787,0,0,0,.252.589.776.776,0,0,0,.576.228,5.432,5.432,0,0,0,.948-.012c.344-.032.636-.068.876-.108l.36-.06a2.2,2.2,0,0,1-.012,1.524,1.954,1.954,0,0,1-.9,1q-.456.24-.9.432a.942.942,0,0,0-.564.672.878.878,0,0,0,.2.732,2.755,2.755,0,0,0,.72.624,5.821,5.821,0,0,0,.924.468q.479.192.792.288a2.824,2.824,0,0,1-.312.949,2.172,2.172,0,0,1-1.152.8q-.24.1-.564.252a1.486,1.486,0,0,0-.576.528,2.544,2.544,0,0,0-.324,1.164v.648q0,.5.013,1.188t.012,1.38v1.248a4.6,4.6,0,0,1-.048.792,1.725,1.725,0,0,1-.193.576.667.667,0,0,1-.552.24q-.12.011-.279.011T-1697.092-312.88Zm9.252-.024a3.233,3.233,0,0,1-1.3-.288l-.552-.264s.084-.121.252-.36.348-.5.54-.792a5.013,5.013,0,0,0,.384-.648.58.58,0,0,0,.036-.564,1.841,1.841,0,0,0-.42-.468q-.336-.288-.756-.612t-.756-.6a3.2,3.2,0,0,0-.48-.347.5.5,0,0,0-.564-.072,1.747,1.747,0,0,0-.372.264,1.5,1.5,0,0,1-1.032.54,2.919,2.919,0,0,1-1.116-.144,5.138,5.138,0,0,1-.9-.384l-.36-.2.3-.481q.3-.479.769-1.211t.936-1.489q.467-.756.84-1.332t.468-.743a.975.975,0,0,0,.12-.8.769.769,0,0,0-.311-.491,8.772,8.772,0,0,1-.841-.492l-.336-.228.24-.157c.159-.1.347-.232.563-.383s.42-.3.612-.445a4.1,4.1,0,0,0,.409-.336,1.446,1.446,0,0,0,.311-.564.885.885,0,0,0-.1-.684,1.438,1.438,0,0,0-.324-.455,3.247,3.247,0,0,0-.42-.337,1.008,1.008,0,0,0-.564-.2,1.541,1.541,0,0,0-.468.036,1.238,1.238,0,0,1-.779-.06,2.622,2.622,0,0,1-.672-.408,3.866,3.866,0,0,1-.48-.468l-.18-.216,6.1-5.161.348.193a4.594,4.594,0,0,1,.732.516,1.251,1.251,0,0,1,.456.756,1.563,1.563,0,0,0,.264.708.68.68,0,0,0,.576.252h3.552v3.5l-.432.36q-.432.36-1.093.888t-1.344,1.08q-.684.551-1.188.959t-.624.481a1.052,1.052,0,0,0-.409.383.557.557,0,0,0-.023.481q.1.263.275.3a2.616,2.616,0,0,0,.492.036h5.136v3.264l-.24.516q-.24.516-.624,1.344t-.816,1.728q-.432.9-.84,1.7t-.672,1.26a2.53,2.53,0,0,1-1.1,1.092,2.778,2.778,0,0,1-1.127.254Zm-1.319-8.448a.738.738,0,0,0-.432.265.825.825,0,0,0-.085.288.484.484,0,0,0,.2.432q.263.239.816.648a6.656,6.656,0,0,0,.936.6,1.387,1.387,0,0,0,.887.157c.257-.057.488-.284.7-.684a1.42,1.42,0,0,0,.108-1.057.87.87,0,0,0-.78-.6,6.564,6.564,0,0,0-.756-.085q-.516-.035-1.164-.036A1.983,1.983,0,0,0-1689.16-321.352Zm-.648-8.951a.248.248,0,0,0-.157.288,1.7,1.7,0,0,0,.157.432q.072.1.239.324a1.513,1.513,0,0,0,.456.4.969.969,0,0,0,.5.156,2,2,0,0,0,.408-.012.664.664,0,0,0,.288-.132,2.253,2.253,0,0,0,.193-.156.531.531,0,0,0,.108-.661.923.923,0,0,0-.492-.491,2.726,2.726,0,0,0-.48-.108,7.241,7.241,0,0,0-.733-.085q-.093-.006-.17-.006A.665.665,0,0,0-1689.808-330.3Zm-73.993,17.159a.816.816,0,0,1-.66-.5,3.792,3.792,0,0,1-.18-.815,2.874,2.874,0,0,1,.072-.72c.064-.353.152-.764.264-1.237s.232-.952.36-1.44.244-.94.348-1.355.18-.728.228-.936.141-.544.276-1.008.288-.988.456-1.572.336-1.168.5-1.752.311-1.116.432-1.6a6.727,6.727,0,0,0,.2-1.08,2.687,2.687,0,0,0,.024-.6,1.753,1.753,0,0,0-.12-.455,1.733,1.733,0,0,1,.959.228,5.8,5.8,0,0,1,1.08.708,6.285,6.285,0,0,1,.9.887,1.513,1.513,0,0,1,.4.792,3.7,3.7,0,0,1-.108.96q-.132.624-.324,1.344t-.383,1.368q-.193.648-.312,1.008-.1.36-.312,1.032t-.455,1.4q-.24.732-.432,1.32a8.435,8.435,0,0,0-.24.828c-.064.3-.1.524-.12.66a.653.653,0,0,0,.192.468,3.707,3.707,0,0,1-.552.984,3.219,3.219,0,0,1-1.032.9,1.894,1.894,0,0,1-.939.235A2.67,2.67,0,0,1-1763.8-313.144Zm-29.592-.648a1.755,1.755,0,0,1-1.008-.864,3.062,3.062,0,0,1-.216-.768,9.391,9.391,0,0,1-.131-1.14q-.036-.612-.036-1.092,0-.288.023-1.08t.072-1.812q.049-1.021.085-2.052t.059-1.849q.024-.815.024-1.152-.024-.84-.024-1.836V-329.4q0-.972-.072-1.764a8.8,8.8,0,0,0-.192-1.62,5.625,5.625,0,0,0-.192-.684,3.743,3.743,0,0,1,1.463,0,5.553,5.553,0,0,1,1.4.468,3.97,3.97,0,0,1,1.068.732,2.179,2.179,0,0,1,.7,1.416q.073.817.1,1.512.024.456.024,1.093t.048,1.2a3.108,3.108,0,0,0,.144.8,1.831,1.831,0,0,0,.672.661,6.771,6.771,0,0,0,1.823.612c.144.031.417.084.816.156s.844.148,1.332.228.936.16,1.344.24a8.1,8.1,0,0,1,.828.192,4.394,4.394,0,0,1,1.9,1.021,2.894,2.894,0,0,1,.792,1.308,2.957,2.957,0,0,1,.084,1.188,1.5,1.5,0,0,1-.228.684,2.891,2.891,0,0,1-.84.588,8.162,8.162,0,0,1-1.008.432l-.456.157-.18-.229a5.186,5.186,0,0,0-.48-.516,5.834,5.834,0,0,0-.636-.528,1.285,1.285,0,0,0-.624-.264,8.447,8.447,0,0,0-.972-.06q-.636-.012-1.332,0t-1.248.049a4.93,4.93,0,0,0-.744.084,2.364,2.364,0,0,0-.743.336,1.913,1.913,0,0,0-.625.792,1.61,1.61,0,0,0-.1.9,5.037,5.037,0,0,0,.252,1.044,5.228,5.228,0,0,0,.3.72,1.537,1.537,0,0,1-.12.576,5.831,5.831,0,0,1-.42.936,3.409,3.409,0,0,1-.66.864,2.1,2.1,0,0,1-.852.348,2.2,2.2,0,0,1-.484.054A2.475,2.475,0,0,1-1793.392-313.792Zm50.593-.743a3.09,3.09,0,0,1-.481-.384,1.942,1.942,0,0,1-.491-.78,2.2,2.2,0,0,1-.013-1.236,2.856,2.856,0,0,1,.468-.876q.42-.613.972-1.332t1.032-1.309c.32-.392.535-.66.648-.8q.192-.216.552-.66t.769-.985q.408-.54.732-1.067a3.413,3.413,0,0,0,.42-.913,2.034,2.034,0,0,0,.1-.7.813.813,0,0,0-.216-.48,3.111,3.111,0,0,0-.84-.481,6.971,6.971,0,0,0-1.56-.455,3.931,3.931,0,0,0-.661-.085q-.491-.035-1.1-.108t-1.188-.156a5.545,5.545,0,0,1-.936-.2,4.791,4.791,0,0,1-.949-.432,2.631,2.631,0,0,1-.779-.72,4.152,4.152,0,0,1-.6-1.224,8.5,8.5,0,0,1-.336-1.848,3.279,3.279,0,0,0,.8.12q.636.049,1.512.1t1.776.072q.9.024,1.6.048t.936.049q.624.047,1.728.108t2.064.131a4.632,4.632,0,0,1,2.136.636,3.508,3.508,0,0,1,1.3,1.38,3.831,3.831,0,0,1,.456,1.669,4.359,4.359,0,0,1-.36,1.908,14.3,14.3,0,0,1-.876,1.787q-.589,1.045-1.284,2.1t-1.308,1.92q-.613.864-.924,1.272a5.533,5.533,0,0,0-.384.492,1.392,1.392,0,0,0-.144,1.116q-.287.408-.671.852a4.744,4.744,0,0,1-.913.8q-.336.216-.84.48a3.569,3.569,0,0,1-1.056.36,1.713,1.713,0,0,1-.293.026A1.747,1.747,0,0,1-1742.8-314.536Zm34.344-2.724a4.954,4.954,0,0,1-1.728-.78,1.288,1.288,0,0,0,.048-.527,2.26,2.26,0,0,0-.552-1.008,6.185,6.185,0,0,0-.481-.564q-.383-.42-.948-.96t-1.164-1.067a7.56,7.56,0,0,0-1.129-.841,6.772,6.772,0,0,0-.743-.36,2.929,2.929,0,0,0-1.248-.192,4.551,4.551,0,0,0-1.428.24,4.922,4.922,0,0,0-1.08.552q-.491.336-1.067.744-.409.288-1,.648t-1.176.684q-.587.324-1.044.54a2.6,2.6,0,0,1-1.488.228,4.508,4.508,0,0,1-1.476-.48,5.991,5.991,0,0,1-1.26-.877,5.689,5.689,0,0,1-.864-.959c.032-.016.22-.121.564-.312s.743-.424,1.2-.7.9-.533,1.32-.78.74-.444.948-.588q.432-.289,1.02-.7t1.224-.84q.636-.432,1.14-.768a7.744,7.744,0,0,1,2.7-1.14,10.623,10.623,0,0,1,2.6-.252,5.714,5.714,0,0,1,2.641.54,7.752,7.752,0,0,1,1.391.924q.265.239.792.768t1.14,1.188q.612.66,1.188,1.284t.984,1.08c.273.3.432.488.481.552a5.355,5.355,0,0,1,.588.876,6.82,6.82,0,0,1,.492,1.1,2.411,2.411,0,0,1,.144,1.02,2.394,2.394,0,0,1-.409,1.237,1.3,1.3,0,0,1-1.031.635q-.054,0-.114,0A5.978,5.978,0,0,1-1708.456-317.26Zm-60.385-3.1a3.181,3.181,0,0,1-1.031-.36,1.691,1.691,0,0,1-.744-.8,2.433,2.433,0,0,1-.12-1.8,2.182,2.182,0,0,1,1.152-1.32,2.583,2.583,0,0,1,.72-.18,1.757,1.757,0,0,1,.7.012c.176.049.284.076.324.085a.894.894,0,0,0,.156.012.71.71,0,0,0,.6-.348,1.68,1.68,0,0,0,.288-.779,3.846,3.846,0,0,1,.168-.792,1.711,1.711,0,0,1,.432-.672,1.475,1.475,0,0,1,.815-.42,3.088,3.088,0,0,1,.96-.059,1.438,1.438,0,0,1,1.08.491,2.244,2.244,0,0,1,.468,1.008,3.106,3.106,0,0,1,.036,1.044,1.909,1.909,0,0,1-.636,1.165,2.408,2.408,0,0,1-1.787.419,1.536,1.536,0,0,0-.517.036.786.786,0,0,0-.419.324,1.31,1.31,0,0,0-.2.589q-.06.4-.132.876a1.785,1.785,0,0,1-.54,1.068,1.581,1.581,0,0,1-.923.468q-.068,0-.146,0A4.56,4.56,0,0,1-1768.84-320.356Zm36.744-9.876a2.175,2.175,0,0,1-1.332-.492,1.507,1.507,0,0,1-.42-1.38,2.271,2.271,0,0,1,.168-.54,1.854,1.854,0,0,1,.468-.648,1.235,1.235,0,0,1,.876-.3,1.918,1.918,0,0,1,1.332.468,1.615,1.615,0,0,1,.612,1.237,1.483,1.483,0,0,1-.5,1.2,1.649,1.649,0,0,1-1.139.457Zm-.024-2.425a1.282,1.282,0,0,0-.4.108.548.548,0,0,0-.324.492.624.624,0,0,0,.144.552.843.843,0,0,0,.432.24.7.7,0,0,0,.6-.108.73.73,0,0,0,.24-.54.838.838,0,0,0-.144-.528.486.486,0,0,0-.441-.223A.921.921,0,0,0-1732.12-332.656Zm2.353-16.616a.965.965,0,0,1-.456-.744q-.024-.216-.048-.9t-.036-1.668q-.012-.984-.024-2.052t-.024-2.076q-.012-1.007-.012-1.764v-1.067a2.385,2.385,0,0,0-.156-.877,1.606,1.606,0,0,0-.4-.612.509.509,0,0,0-.841-.023q-.6.575-1.1,1.02a1.43,1.43,0,0,1-.841.444,1.913,1.913,0,0,1-.779-.2,5.352,5.352,0,0,1-.852-.492q-.408-.288-.672-.5l-.264-.216.408-.576q.409-.576,1.1-1.488t1.536-1.932q.84-1.021,1.7-1.932a13.884,13.884,0,0,1,1.62-1.488,2.287,2.287,0,0,1,1.284-.576,2.268,2.268,0,0,1,1.26.54,13.036,13.036,0,0,1,1.571,1.4q.84.864,1.656,1.812t1.489,1.813q.671.864,1.067,1.4l.4.54-.3.336a5.589,5.589,0,0,1-.792.708,3.081,3.081,0,0,1-1.08.527,1.478,1.478,0,0,1-1.164-.18,4.77,4.77,0,0,1-.468-.36c-.168-.144-.34-.3-.517-.48a.6.6,0,0,0-.54-.192.92.92,0,0,0-.563.383,2.3,2.3,0,0,0-.288.612,2.47,2.47,0,0,0-.1.877c0,.112,0,.4.012.851s.013,1.008.013,1.656,0,1.328-.013,2.04-.015,1.388-.023,2.028-.016,1.176-.024,1.608-.02.7-.036.792q-.049.288-.66.7a2.864,2.864,0,0,1-1.309.481l-.082,0A1.389,1.389,0,0,1-1729.768-349.272Z" transform="translate(1795.736 369.5)" fill="#fff" stroke="rgba(0,0,0,0)" stroke-miterlimit="10" stroke-width="1"/>
</svg>
