<svg xmlns="http://www.w3.org/2000/svg" width="26" height="26" viewBox="0 0 26 26">
  <g transform="translate(-242 -143)">
    <path d="M13,0A13,13,0,1,1,0,13,13,13,0,0,1,13,0Z" transform="translate(242 143)" fill="#c53e3e"/>
    <path d="M3.64-10.64h6.72a.81.81,0,0,1,.595.245A.81.81,0,0,1,11.2-9.8V-.28a.81.81,0,0,1-.245.6A.81.81,0,0,1,10.36.56H3.64a.81.81,0,0,1-.6-.245A.81.81,0,0,1,2.8-.28V-9.8a.81.81,0,0,1,.245-.595A.81.81,0,0,1,3.64-10.64Zm6.426,4.8a.074.074,0,0,0,.084-.084V-9.506a.074.074,0,0,0-.084-.084H3.934a.074.074,0,0,0-.084.084v3.584a.074.074,0,0,0,.084.084ZM3.934-4.8a.074.074,0,0,0-.084.084V-.56a.074.074,0,0,0,.084.084h6.132A.074.074,0,0,0,10.15-.56V-4.718a.074.074,0,0,0-.084-.084Z" transform="translate(248 161)" fill="#fff"/>
  </g>
</svg>
